<svg xmlns="http://www.w3.org/2000/svg" width="32" height="32" viewBox="0 0 32 32" fill="none">
  <!-- Background circle -->
  <circle cx="16" cy="16" r="15" fill="#3B82F6"/>
  
  <!-- Brain icon in white -->
  <g transform="translate(6, 6)" stroke="white" stroke-width="2" stroke-linecap="round" stroke-linejoin="round" fill="none">
    <path d="M9.5 2A2.5 2.5 0 0 1 12 4.5v15a2.5 2.5 0 0 1-4.96.44 2.5 2.5 0 0 1-2.96-3.44 2.5 2.5 0 0 1-.54-4.5 2.5 2.5 0 0 1 1.5-2.5"/>
    <path d="M14.5 2A2.5 2.5 0 0 0 12 4.5v15a2.5 2.5 0 0 0 4.96.44 2.5 2.5 0 0 0 2.96-3.44 2.5 2.5 0 0 0 .54-4.5 2.5 2.5 0 0 0-1.5-2.5"/>
  </g>
</svg> 